<svg width="170" height="36" viewBox="0 0 170 36" fill="none" xmlns="http://www.w3.org/2000/svg">
  <path d="M7.1149 1.99178C7.1149 1.18596 7.77396 0.532715 8.58695 0.532715C9.39994 0.532715 10.059 1.18596 10.059 1.99178V5.96368C10.059 6.7695 9.39994 7.42274 8.58695 7.42274C7.77396 7.42274 7.1149 6.7695 7.1149 5.96368V1.99178Z" fill="#C92A2A"/>
  <path fill-rule="evenodd" clip-rule="evenodd" d="M10.7132 4.96264V5.96368C10.7132 7.12764 9.76127 8.07122 8.58695 8.07122C7.41263 8.07122 6.46066 7.12764 6.46066 5.96368V5.327C5.07288 5.77668 3.79696 6.5458 2.74525 7.58823C0.987497 9.33049 0 11.6935 0 14.1574C0 16.6213 0.987497 18.9843 2.74525 20.7266L17.5174 35.3684C17.677 35.5267 17.9359 35.5267 18.0956 35.3684L32.8677 20.7266C33.7383 19.864 34.429 18.8399 34.9002 17.7128C35.3714 16.5856 35.6139 15.3775 35.6139 14.1574C35.6139 12.9373 35.3714 11.7292 34.9002 10.602C34.429 9.47486 33.7383 8.45076 32.8677 7.58823C31.9975 6.7253 30.9643 6.04076 29.8271 5.57372C29.6459 5.49928 29.4625 5.43059 29.2774 5.36772V5.96368C29.2774 7.12764 28.3254 8.07122 27.1511 8.07122C25.9768 8.07122 25.0248 7.12764 25.0248 5.96368V4.94473C24.2116 5.05016 23.414 5.26119 22.6531 5.57372C21.5159 6.04076 20.4827 6.7253 19.6125 7.58823L17.8065 9.37829L16.0005 7.58823C14.5618 6.1622 12.7035 5.24765 10.7132 4.96264ZM27.3149 12.6885C27.8587 13.2258 27.86 14.0983 27.3178 14.6373L17.37 24.5265C17.1092 24.7858 16.7549 24.9315 16.3855 24.9315C16.0161 24.9315 15.6618 24.7858 15.401 24.5265L10.9554 20.1071C10.4133 19.5682 10.4146 18.6957 10.9583 18.1583C11.5021 17.621 12.3823 17.6223 12.9245 18.1612L16.3855 21.6018L25.3488 12.6913C25.8909 12.1524 26.7712 12.1511 27.3149 12.6885Z" fill="#C92A2A"/>
  <path d="M27.1511 0.532715C26.3381 0.532715 25.6791 1.18596 25.6791 1.99178V5.96368C25.6791 6.7695 26.3381 7.42274 27.1511 7.42274C27.9641 7.42274 28.6232 6.7695 28.6232 5.96368V1.99178C28.6232 1.18596 27.9641 0.532715 27.1511 0.532715Z" fill="#C92A2A"/>
  <path d="M108.735 23.8231C106.99 23.8231 105.557 23.2222 104.436 22.0204C103.326 20.8069 102.771 19.2699 102.771 17.4094C102.771 15.5372 103.315 13.9887 104.401 12.7637C105.487 11.5388 106.926 10.9263 108.717 10.9263C110.196 10.9263 111.381 11.3192 112.271 12.105C113.172 12.8793 113.692 13.8789 113.831 15.1039H111.335C111.219 14.4683 110.93 13.9656 110.468 13.5958C110.017 13.226 109.434 13.0411 108.717 13.0411C107.619 13.0411 106.782 13.4456 106.204 14.2545C105.626 15.0634 105.337 16.1151 105.337 17.4094C105.337 18.6921 105.643 19.738 106.256 20.5469C106.88 21.3559 107.706 21.7603 108.735 21.7603C109.463 21.7603 110.069 21.5639 110.555 21.171C111.04 20.7665 111.323 20.2349 111.404 19.5762H113.866C113.796 20.7434 113.34 21.7199 112.496 22.5057C111.56 23.384 110.306 23.8231 108.735 23.8231Z" fill="#C92A2A"/>
  <path d="M122.61 22.4884C121.744 23.3782 120.629 23.8231 119.265 23.8231C117.901 23.8231 116.786 23.3782 115.919 22.4884C115.053 21.587 114.619 20.466 114.619 19.1255C114.619 17.785 115.053 16.6698 115.919 15.7799C116.786 14.8785 117.901 14.4278 119.265 14.4278C120.629 14.4278 121.744 14.8785 122.61 15.7799C123.477 16.6698 123.911 17.785 123.911 19.1255C123.911 20.466 123.477 21.587 122.61 22.4884ZM119.265 22.0204C119.97 22.0204 120.519 21.7603 120.912 21.2403C121.316 20.7087 121.518 20.0038 121.518 19.1255C121.518 18.2472 121.316 17.5423 120.912 17.0107C120.519 16.4791 119.97 16.2133 119.265 16.2133C118.548 16.2133 117.994 16.4791 117.601 17.0107C117.208 17.5307 117.011 18.2357 117.011 19.1255C117.011 20.0038 117.208 20.7087 117.601 21.2403C117.994 21.7603 118.548 22.0204 119.265 22.0204Z" fill="#C92A2A"/>
  <path d="M127.312 14.6705V15.8839H127.364C127.976 14.9132 128.855 14.4278 129.999 14.4278C130.912 14.4278 131.651 14.7399 132.218 15.3639C132.784 15.9764 133.067 16.7738 133.067 17.7561V23.5631H130.709V18.1028C130.709 17.6174 130.571 17.2245 130.293 16.924C130.028 16.6235 129.652 16.4733 129.167 16.4733C128.647 16.4733 128.213 16.664 127.867 17.0454C127.531 17.4267 127.364 17.9179 127.364 18.5188V23.5631H125.006V14.6705H127.312Z" fill="#C92A2A"/>
  <path d="M138.126 23.8231C136.854 23.8231 135.861 23.5458 135.144 22.9911C134.428 22.4248 134.035 21.6563 133.965 20.6856H136.149C136.3 21.6679 136.947 22.159 138.091 22.159C138.611 22.159 139.01 22.0666 139.287 21.8817C139.576 21.6968 139.72 21.4483 139.72 21.1363C139.72 21.0207 139.697 20.9167 139.651 20.8243C139.616 20.7318 139.547 20.6509 139.443 20.5816C139.351 20.5007 139.264 20.4371 139.183 20.3909C139.114 20.3447 138.987 20.2985 138.802 20.2522C138.617 20.206 138.472 20.1713 138.368 20.1482C138.276 20.1251 138.108 20.0962 137.866 20.0616C137.634 20.0153 137.473 19.9807 137.38 19.9576C136.895 19.8651 136.496 19.7726 136.184 19.6802C135.884 19.5762 135.566 19.4317 135.231 19.2468C134.896 19.0504 134.641 18.7904 134.468 18.4668C134.306 18.1316 134.225 17.733 134.225 17.2707C134.225 16.3462 134.561 15.6413 135.231 15.1559C135.913 14.6705 136.785 14.4278 137.848 14.4278C138.992 14.4278 139.888 14.6936 140.535 15.2252C141.194 15.7453 141.569 16.4618 141.662 17.3747H139.53C139.437 16.508 138.865 16.0746 137.814 16.0746C137.34 16.0746 136.964 16.1613 136.687 16.3346C136.421 16.508 136.288 16.7507 136.288 17.0627C136.288 17.1667 136.306 17.2649 136.34 17.3574C136.386 17.4383 136.456 17.5134 136.548 17.5827C136.652 17.6405 136.75 17.6925 136.843 17.7387C136.935 17.7734 137.068 17.8138 137.242 17.8601C137.415 17.8947 137.565 17.9294 137.692 17.9641C137.819 17.9872 137.993 18.0219 138.212 18.0681C138.432 18.1028 138.605 18.1316 138.732 18.1548C139.102 18.2357 139.403 18.3108 139.634 18.3801C139.876 18.4379 140.154 18.5419 140.466 18.6921C140.778 18.8308 141.021 18.9926 141.194 19.1775C141.379 19.3508 141.535 19.5935 141.662 19.9055C141.801 20.206 141.87 20.5585 141.87 20.963C141.87 21.8412 141.523 22.5404 140.83 23.0604C140.148 23.5689 139.247 23.8231 138.126 23.8231Z" fill="#C92A2A"/>
  <path d="M150.821 23.5631H148.55V22.5231H148.498C148.174 22.9622 147.816 23.2858 147.423 23.4938C147.042 23.7018 146.551 23.8058 145.95 23.8058C144.979 23.8058 144.222 23.5169 143.679 22.9391C143.136 22.3613 142.864 21.5812 142.864 20.5989V14.6705H145.204V20.2002C145.204 21.275 145.695 21.8123 146.678 21.8123C147.221 21.8123 147.654 21.6274 147.978 21.2576C148.301 20.8878 148.463 20.4025 148.463 19.8015V14.6705H150.821V23.5631Z" fill="#C92A2A"/>
  <path d="M152.38 23.5631V11.169H154.738V23.5631H152.38Z" fill="#C92A2A"/>
  <path d="M155.77 16.2306V14.6705H157V11.897H159.306V14.6705H160.831V16.2306H159.306V20.9456C159.306 21.535 159.601 21.8297 160.19 21.8297L160.883 21.8123V23.5458C160.525 23.5689 160.034 23.5805 159.41 23.5805C158.728 23.5805 158.156 23.4187 157.694 23.0951C157.232 22.76 157 22.211 157 21.4483V16.2306H155.77Z" fill="#C92A2A"/>
  <path d="M167.729 23.5631C167.613 23.4129 167.521 23.0835 167.452 22.5751H167.417C167.163 22.9564 166.839 23.2511 166.446 23.4591C166.053 23.6671 165.504 23.7711 164.8 23.7711C163.863 23.7711 163.112 23.5342 162.546 23.0604C161.98 22.5866 161.697 21.9164 161.697 21.0496C161.697 20.1482 162.009 19.4895 162.633 19.0735C163.257 18.6459 164.135 18.3512 165.268 18.1894C166.1 18.0739 166.666 17.9583 166.966 17.8427C167.267 17.7156 167.417 17.496 167.417 17.184C167.417 16.8605 167.29 16.6062 167.036 16.4213C166.781 16.2249 166.412 16.1266 165.926 16.1266C164.852 16.1266 164.279 16.5427 164.21 17.3747H162.113C162.147 16.5311 162.488 15.8319 163.135 15.2772C163.783 14.7225 164.719 14.4452 165.944 14.4452C168.44 14.4452 169.688 15.5372 169.688 17.7214V22.2457C169.688 22.916 169.792 23.3262 170 23.4765V23.5631H167.729ZM165.372 22.1244C166.019 22.1244 166.527 21.9568 166.897 21.6217C167.278 21.2865 167.469 20.8878 167.469 20.4256V19.0908C167.215 19.2411 166.666 19.4144 165.822 19.6109C165.152 19.7611 164.678 19.9344 164.401 20.1309C164.123 20.3158 163.985 20.6047 163.985 20.9976C163.985 21.7488 164.447 22.1244 165.372 22.1244Z" fill="#C92A2A"/>
  <path d="M40.8901 23.5631L45.2064 11.1689H47.8066L52.1749 23.5631H49.5574L48.7253 20.9283H44.253L43.4383 23.5631H40.8901ZM45.9518 15.4332L44.8424 19.0041H48.1186L47.0092 15.4332L46.5065 13.5264H46.4718C46.2638 14.3585 46.0905 14.9941 45.9518 15.4332Z" fill="#fff"/>
  <path d="M56.6064 26.5967C55.4046 26.5967 54.4396 26.354 53.7116 25.8686C52.9951 25.3832 52.5733 24.7014 52.4462 23.8231H54.7863C55.0174 24.4818 55.6126 24.8112 56.5718 24.8112C57.8892 24.8112 58.5479 24.1929 58.5479 22.9564V21.9857H58.4959C57.8834 22.6791 57.1091 23.0258 56.1731 23.0258C55.1215 23.0258 54.2027 22.6386 53.4169 21.8643C52.6426 21.0901 52.2555 20.0615 52.2555 18.7788C52.2555 17.4614 52.6137 16.4097 53.3302 15.6239C54.0467 14.8265 54.9712 14.4278 56.1037 14.4278C57.1785 14.4278 57.999 14.8207 58.5652 15.6066H58.5999V14.6705H60.8707V22.8871C60.8707 24.0427 60.5183 24.9441 59.8133 25.5913C59.0968 26.2615 58.0279 26.5967 56.6064 26.5967ZM56.5718 21.1363C57.2767 21.1363 57.8025 20.9109 58.1492 20.4602C58.4959 20.0095 58.6693 19.4317 58.6693 18.7268C58.6693 18.0334 58.4844 17.4614 58.1145 17.0107C57.7563 16.5484 57.2363 16.3173 56.5544 16.3173C55.9535 16.3173 55.4681 16.5369 55.0983 16.976C54.7401 17.4151 54.561 18.0045 54.561 18.7441C54.561 19.4953 54.7401 20.0847 55.0983 20.5122C55.4681 20.9283 55.9593 21.1363 56.5718 21.1363Z" fill="#fff"/>
  <path d="M66.5663 23.8231C65.1334 23.8231 64.0066 23.384 63.1861 22.5057C62.3656 21.6159 61.9554 20.4834 61.9554 19.1082C61.9554 17.7792 62.3656 16.6698 63.1861 15.7799C64.0066 14.8785 65.0582 14.4278 66.341 14.4278C67.7393 14.4278 68.8198 14.9132 69.5825 15.8839C70.3453 16.8547 70.7266 18.1548 70.7266 19.7842H64.2782C64.3706 20.4891 64.6075 21.0381 64.9889 21.431C65.3703 21.8123 65.8903 22.003 66.549 22.003C67.4157 22.003 67.9878 21.639 68.2651 20.9109H70.5879C70.4146 21.743 69.9755 22.4364 69.2705 22.9911C68.5656 23.5458 67.6642 23.8231 66.5663 23.8231ZM66.3757 16.248C65.2316 16.248 64.544 16.8836 64.3129 18.1548H68.2651C68.2305 17.5885 68.0398 17.132 67.6931 16.7853C67.3464 16.4271 66.9072 16.248 66.3757 16.248Z" fill="#fff"/>
  <path d="M74.1232 14.6705V15.8839H74.1752C74.7877 14.9132 75.666 14.4278 76.8101 14.4278C77.723 14.4278 78.4626 14.7399 79.0289 15.3639C79.5952 15.9764 79.8783 16.7738 79.8783 17.7561V23.5631H77.5208V18.1027C77.5208 17.6174 77.3821 17.2245 77.1048 16.924C76.839 16.6235 76.4634 16.4733 75.978 16.4733C75.458 16.4733 75.0246 16.664 74.6779 17.0453C74.3428 17.4267 74.1752 17.9178 74.1752 18.5188V23.5631H71.8177V14.6705H74.1232Z" fill="#fff"/>
  <path d="M84.6596 23.8231C83.5387 23.8231 82.6315 23.4013 81.9381 22.5577C81.2447 21.7025 80.898 20.5585 80.898 19.1255C80.898 17.7387 81.2505 16.612 81.9555 15.7453C82.6719 14.867 83.5849 14.4278 84.6943 14.4278C85.8037 14.4278 86.6415 14.867 87.2078 15.7453H87.2598V11.1689H89.6173V23.5631H87.3465V22.4017H87.3118C86.734 23.3493 85.8499 23.8231 84.6596 23.8231ZM85.1797 21.847C85.8731 21.847 86.3989 21.6101 86.7571 21.1363C87.1269 20.6625 87.3118 20.0095 87.3118 19.1775C87.3118 17.2822 86.6242 16.3346 85.249 16.3346C84.6134 16.3346 84.128 16.5889 83.7929 17.0973C83.4578 17.6058 83.2902 18.2819 83.2902 19.1255C83.2902 19.9922 83.452 20.6625 83.7756 21.1363C84.1107 21.6101 84.5787 21.847 85.1797 21.847Z" fill="#fff"/>
  <path d="M96.7488 23.5631C96.6333 23.4129 96.5408 23.0835 96.4715 22.5751H96.4368C96.1826 22.9564 95.859 23.2511 95.4661 23.4591C95.0732 23.6671 94.5242 23.7711 93.8193 23.7711C92.8832 23.7711 92.1321 23.5342 91.5658 23.0604C90.9996 22.5866 90.7164 21.9163 90.7164 21.0496C90.7164 20.1482 91.0285 19.4895 91.6525 19.0735C92.2765 18.6459 93.1548 18.3512 94.2873 18.1894C95.1194 18.0739 95.6856 17.9583 95.9861 17.8427C96.2866 17.7156 96.4368 17.496 96.4368 17.184C96.4368 16.8604 96.3097 16.6062 96.0555 16.4213C95.8012 16.2248 95.4314 16.1266 94.946 16.1266C93.8713 16.1266 93.2993 16.5426 93.2299 17.3747H91.1325C91.1671 16.5311 91.508 15.8319 92.1552 15.2772C92.8023 14.7225 93.7384 14.4452 94.9634 14.4452C97.4596 14.4452 98.7076 15.5372 98.7076 17.7214V22.2457C98.7076 22.916 98.8116 23.3262 99.0197 23.4764V23.5631H96.7488ZM94.3913 22.1244C95.0385 22.1244 95.547 21.9568 95.9168 21.6217C96.2981 21.2865 96.4888 20.8878 96.4888 20.4256V19.0908C96.2346 19.241 95.6857 19.4144 94.842 19.6109C94.1718 19.7611 93.698 19.9344 93.4206 20.1309C93.1433 20.3158 93.0046 20.6047 93.0046 20.9976C93.0046 21.7488 93.4668 22.1244 94.3913 22.1244Z" fill="#fff"/>
</svg>
